:SAMPLES-PER-SECOND 30
:FULLY-SPECIFIED
:DEGREES
31
root  41.8068 39.5169 10.9676 -176.362 24.8198 179.757
RightUpLeg  -14.148 -10.2394 -11.4134
RightLeg  14.8626 2.05151 0.398759
RightFoot  -3.12453 -0.488723 6.49934
RightToes  -2.9104e-010 0 -3.6325e-017
Spine  6.71817 -0.595697 -3.40116
Spine1  -0.61851 -0.595827 -1.14786
HEad  -5.51352 -26.5447 12.3545
LeftShoulder1  -0.499092 4.85754 -30.7235
LeftArm  0.909522 24.9458 -34.8777
LeftForeArm  18.6552 -24.5464 -4.25096
LeftHand  0.0055554 8.02035 2.06256
RightShoulder  -1.28341 -6.91828 31.0889
RightArm  15.7477 -3.89707 27.4273
RightForeArm  5.78803 12.6754 5.97134
RightHand  -0.146141 4.01626 -2.06832
LeftUpLeg  -3.6204 11.4466 4.38735
LeftLeg  10.3109 36.4872 2.32798
LeftFoot  -2.86191 0.23016 -2.87605
LeftToes  -3.37426e-010 -1.91496e-010 5.23909e-011
32
root  42.0576 39.4944 11.2141 -176.615 29.2783 179.09
RightUpLeg  -13.2136 -11.3866 -13.3107
RightLeg  13.0813 1.92196 0.241761
RightFoot  -3.58523 -0.461637 6.44308
RightToes  -2.9104e-010 0 -3.6325e-017
Spine  6.66499 -0.48534 -4.10269
Spine1  -0.922416 -0.771261 0.30661
HEad  -4.54621 -25.7996 11.3289
LeftShoulder1  -0.554438 4.98969 -31.1754
LeftArm  -0.18886 23.8223 -35.0503
LeftForeArm  19.5124 -25.8541 -4.50771
LeftHand  0.00147454 7.39518 2.27467
RightShoulder  -1.31231 -6.97743 31.2749
RightArm  14.8069 -5.7984 27.049
RightForeArm  6.61869 12.3376 5.70385
RightHand  -0.125295 3.4498 -1.89266
LeftUpLeg  -2.85574 11.9037 4.47456
LeftLeg  10.0115 40.1252 2.07023
LeftFoot  -2.19525 0.28094 -3.3494
LeftToes  -3.37426e-010 -1.91496e-010 5.23909e-011
33
root  42.43 39.4825 11.4787 -176.925 33.0573 178.551
RightUpLeg  -11.9771 -13.8734 -14.448
RightLeg  10.7201 0.136401 -0.146339
RightFoot  -3.57674 -0.419568 5.81583
RightToes  -2.9104e-010 0 -3.6325e-017
Spine  6.32138 -0.650405 -4.29753
Spine1  -0.466937 -1.1217 1.27887
HEad  -3.14727 -25.7979 10.1302
LeftShoulder1  -0.608115 5.10198 -31.8717
LeftArm  -1.11713 22.4247 -34.5568
LeftForeArm  20.5949 -27.866 -4.89679
LeftHand  -0.00178404 7.86406 1.89333
RightShoulder  -1.37516 -7.11677 31.5682
RightArm  13.868 -7.72501 27.3936
RightForeArm  6.74101 11.7918 5.51568
RightHand  -0.135594 3.16078 -2.07899
LeftUpLeg  -1.94722 12.2309 4.79709
LeftLeg  9.40449 43.1868 1.81136
LeftFoot  -1.26553 0.34164 -3.78662
LeftToes  -3.37426e-010 -1.91496e-010 5.23909e-011
34
root  42.907 39.4339 11.7792 -177.311 36.8145 177.791
RightUpLeg  -11.1788 -15.7628 -15.2664
RightLeg  8.90442 -4.48195 -0.553365
RightFoot  -3.60916 -0.372989 5.15777
RightToes  -2.9104e-010 0 -3.6325e-017
Spine  6.22187 -0.845741 -4.99083
Spine1  -0.353065 -1.57624 2.57573
HEad  -2.46587 -23.9276 8.83676
LeftShoulder1  -0.765426 5.47829 -32.6188
LeftArm  -1.49815 21.0722 -33.7935
LeftForeArm  20.9742 -29.9416 -5.35433
LeftHand  0.00398345 6.6555 3.22448
RightShoulder  -1.3894 -7.1378 31.7292
RightArm  12.0794 -10.1928 28.6049
RightForeArm  7.08433 11.0696 5.06373
RightHand  -0.119967 2.6625 -1.95669
LeftUpLeg  -1.14719 12.4146 5.01654
LeftLeg  9.11594 46.5119 1.91801
LeftFoot  -0.294728 0.442937 -4.56139
LeftToes  -3.37426e-010 -1.91496e-010 5.23909e-011
35
root  43.4959 39.3972 12.1337 -177.47 40.7148 177.162
RightUpLeg  -10.8151 -16.4309 -15.2786
RightLeg  7.43557 -9.55663 -0.545819
RightFoot  -3.4101 -0.308062 4.11956
RightToes  -2.9104e-010 0 -3.6325e-017
Spine  5.76496 -0.859174 -5.28766
Spine1  0.330764 -1.75461 3.47359
HEad  -3.01154 -21.9925 8.18742
LeftShoulder1  -0.799979 5.54997 -32.93
LeftArm  -3.19431 19.8322 -33.8696
LeftForeArm  22.7749 -31.8939 -5.72429
LeftHand  0.00251633 6.52227 3.44998
RightShoulder  -1.49893 -7.35317 32.4488
RightArm  10.3239 -12.4699 29.9404
RightForeArm  8.02853 10.3112 4.54809
RightHand  -0.0669265 3.46204 -1.11875
LeftUpLeg  -0.279089 12.7026 5.54018
LeftLeg  8.33649 49.8256 1.63617
LeftFoot  1.03944 0.551835 -5.14525
LeftToes  -3.37426e-010 -1.91496e-010 5.23909e-011
36
root  44.2219 39.3455 12.5044 -177.549 44.531 176.653
RightUpLeg  -10.7723 -16.0406 -14.5901
RightLeg  6.58326 -13.5166 -0.378289
RightFoot  -2.7886 -0.408978 5.13443
RightToes  -2.9104e-010 0 -3.6325e-017
Spine  5.85851 -1.09912 -5.56496
Spine1  -0.0629998 -2.14374 4.32368
HEad  -2.97462 -19.6248 7.44005
LeftShoulder1  -0.875017 5.72587 -33.2063
LeftArm  -4.89559 19.6876 -33.3689
LeftForeArm  23.7904 -34.0739 -6.21294
LeftHand  -0.00118874 6.53254 3.10415
RightShoulder  -1.52256 -7.36091 32.9703
RightArm  10.2454 -15.0445 31.3408
RightForeArm  8.94894 9.54204 4.49941
RightHand  -0.0642192 3.18732 -1.10537
LeftUpLeg  1.08946 13.0293 6.35701
LeftLeg  6.44622 53.092 0.438631
LeftFoot  2.60564 0.674557 -5.64207
LeftToes  -3.37426e-010 -1.91496e-010 5.23909e-011
37
root  45.0502 39.3211 12.8939 -177.296 48.3739 176.79
RightUpLeg  -10.8412 -15.3688 -13.375
RightLeg  5.44196 -14.3027 0.676486
RightFoot  -0.218357 -0.665604 6.85173
RightToes  -2.9104e-010 0 -3.6325e-017
Spine  5.82894 -1.27595 -5.17198
Spine1  0.0846394 -2.45277 5.08942
HEad  -2.88374 -16.7359 6.41177
LeftShoulder1  -0.96252 5.9477 -33.2121
LeftArm  -5.85252 19.3835 -33.2538
LeftForeArm  24.0433 -35.7285 -6.63289
LeftHand  0.00382902 6.74672 3.15871
RightShoulder  -1.60607 -7.50913 33.5807
RightArm  10.1582 -17.2856 32.9854
RightForeArm  11.0288 8.64023 4.45054
RightHand  -0.0389422 2.82988 -0.763775
LeftUpLeg  3.38247 13.1399 7.56539
LeftLeg  2.17522 56.5951 -2.38908
LeftFoot  4.63971 0.821501 -6.04776
LeftToes  -3.37426e-010 -1.91496e-010 5.23909e-011
38
root  45.9448 39.2722 13.3256 -175.963 51.9458 178.098
RightUpLeg  -11.6759 -14.8638 -11.1213
RightLeg  5.1992 -11.0029 2.11564
RightFoot  1.50274 -0.766486 6.90902
RightToes  -2.9104e-010 0 -3.6325e-017
Spine  5.944 -1.67308 -3.66996
Spine1  -0.0938517 -2.83439 5.20836
HEad  -2.66268 -13.7883 5.13121
LeftShoulder1  -1.03728 6.14326 -33.1145
LeftArm  -7.11391 19.4771 -33.5095
LeftForeArm  24.5109 -36.725 -6.87714
LeftHand  -0.00315815 6.19386 3.7036
RightShoulder  -1.67524 -7.5975 34.3936
RightArm  10.2714 -18.9828 34.2619
RightForeArm  15.3855 7.92882 4.40842
RightHand  0.0205814 2.51323 0.101489
LeftUpLeg  4.99279 13.6307 9.61355
LeftLeg  -0.142795 59.1152 -3.77301
LeftFoot  6.2601 0.946715 -6.35752
LeftToes  -3.37426e-010 -1.91496e-010 5.23909e-011
39
root  46.8706 39.1721 13.7493 -174.497 55.5357 179.604
RightUpLeg  -13.0478 -14.5941 -8.38236
RightLeg  7.01143 -7.83549 2.21715
RightFoot  0.211573 -0.737238 7.27728
RightToes  -2.9104e-010 0 -3.6325e-017
Spine  6.00088 -1.85647 -2.23814
Spine1  -0.160407 -3.0302 5.38195
HEad  -2.08404 -10.4852 3.27729
LeftShoulder1  -1.03685 6.12549 -33.3531
LeftArm  -7.17262 19.497 -33.6087
LeftForeArm  24.3867 -37.3668 -7.06315
LeftHand  -0.029908 5.23252 3.67471
RightShoulder  -1.59167 -7.41917 34.1225
RightArm  10.9402 -20.8491 35.6815
RightForeArm  18.6737 7.70357 4.6437
RightHand  0.0653131 2.63541 0.734555
LeftUpLeg  5.94581 14.8786 12.1033
LeftLeg  1.49589 59.4619 -2.66835
LeftFoot  6.01242 0.964318 -6.56786
LeftToes  -3.37426e-010 -1.91496e-010 5.23909e-011
40
root  47.7997 39.1302 14.154 -173.377 58.231 -178.944
RightUpLeg  -13.6787 -14.3691 -5.95208
RightLeg  8.88418 -5.27451 2.18453
RightFoot  -0.85016 -0.54653 5.87631
RightToes  -2.9104e-010 0 -3.6325e-017
Spine  5.12776 -2.14596 -1.36518
Spine1  1.74273 -3.49957 5.92838
HEad  -2.31733 -6.94259 2.11536
LeftShoulder1  -0.967306 5.97477 -32.9471
LeftArm  -6.25148 18.6337 -34.2159
LeftForeArm  24.5105 -37.8605 -7.19743
LeftHand  -0.0421211 4.76845 3.69334
RightShoulder  -1.63893 -7.48377 34.6402
RightArm  10.9637 -21.5385 36.5921
RightForeArm  20.8604 7.93582 4.68736
RightHand  0.0746874 2.85364 0.837871
LeftUpLeg  6.95905 15.5543 14.2286
LeftLeg  2.07991 51.1199 -2.31823
LeftFoot  2.48071 0.925944 -7.837
LeftToes  -3.37426e-010 -1.91496e-010 5.23909e-011
41
root  48.6493 39.121 14.4957 -173.779 60.1915 -178.921
RightUpLeg  -13.2689 -15.1477 -4.84175
RightLeg  10.1878 -2.54318 2.60309
RightFoot  -2.62371 -0.432347 5.45769
RightToes  -2.9104e-010 0 -3.6325e-017
Spine  6.15559 -2.52485 -1.21036
Spine1  1.2936 -3.99509 6.64259
HEad  -1.96225 -4.1415 1.23291
LeftShoulder1  -1.11144 6.27062 -33.9915
LeftArm  -3.95326 17.5908 -33.2808
LeftForeArm  25.5082 -39.0877 -7.48895
LeftHand  -0.036124 4.90559 2.72952
RightShoulder  -1.59436 -7.39486 34.4361
RightArm  11.2944 -22.2642 36.9948
RightForeArm  21.5428 8.24933 4.81808
RightHand  0.0731847 2.03288 0.985806
LeftUpLeg  6.52682 13.8309 13.6884
LeftLeg  2.83086 34.8839 -0.513402
LeftFoot  -3.27656 0.579175 -7.62108
LeftToes  -3.37426e-010 -1.91496e-010 5.23909e-011
42
root  49.4437 39.1331 14.7765 -174.71 62.2046 -179.223
RightUpLeg  -12.1771 -14.4222 -4.23895
RightLeg  10.8423 -1.32129 2.65592
RightFoot  -4.35915 -0.39251 5.92763
RightToes  -2.9104e-010 0 -3.6325e-017
Spine  6.68513 -2.41172 -0.641005
Spine1  1.69039 -3.80425 6.44391
HEad  -2.11844 -2.91719 0.894223
LeftShoulder1  -1.01981 6.04987 -33.8491
LeftArm  -3.33721 16.6861 -34.4229
LeftForeArm  28.8334 -39.8449 -7.50426
LeftHand  -0.0304869 4.99716 1.61323
RightShoulder  -1.56234 -7.33465 34.2488
RightArm  10.4864 -22.0379 37.7737
RightForeArm  20.8106 8.17067 4.63392
RightHand  0.0526408 3.04318 0.495778
LeftUpLeg  4.64298 12.1281 12.3508
LeftLeg  6.7238 20.7792 2.23978
LeftFoot  -7.4033 0.177254 -4.14544
LeftToes  -3.37426e-010 -1.91496e-010 5.23909e-011
43
root  50.1604 39.1263 14.9355 -175.704 64.8934 -179.732
RightUpLeg  -11.4286 -13.1164 -3.85985
RightLeg  11.5844 0.117434 2.65409
RightFoot  -5.80028 -0.331173 6.03433
RightToes  -2.9104e-010 0 -3.6325e-017
Spine  6.86707 -1.94593 1.11542
Spine1  2.15619 -2.83039 4.50319
HEad  -2.1847 -1.47066 0.783701
LeftShoulder1  -0.874801 5.76342 -32.5492
LeftArm  -3.84739 16.6931 -36.8264
LeftForeArm  31.5463 -40.7491 -7.60591
LeftHand  -0.0338165 4.3893 1.31853
RightShoulder  -1.59634 -7.37763 34.6564
RightArm  11.1942 -20.2111 37.9207
RightForeArm  20.2776 7.76543 4.98093
RightHand  0.0630448 2.65445 0.702101
LeftUpLeg  2.4203 11.7461 10.9518
LeftLeg  11.4397 10.6876 2.55568
LeftFoot  -10.1803 0.098638 -3.96015
LeftToes  -3.37426e-010 -1.91496e-010 5.23909e-011
44
root  50.8642 39.1435 15.0327 -176.459 66.817 179.33
RightUpLeg  -10.999 -11.7982 -3.77242
RightLeg  11.9564 0.652013 2.71935
RightFoot  -7.02998 -0.28941 6.3927
RightToes  -2.9104e-010 0 -3.6325e-017
Spine  6.08612 -1.68708 3.25004
Spine1  2.90334 -1.98264 2.19573
HEad  -2.12994 0.781288 0.218604
LeftShoulder1  -0.798076 5.57106 -32.4218
LeftArm  -3.63976 16.6335 -37.4814
LeftForeArm  32.6848 -41.9514 -7.90402
LeftHand  -0.0311372 4.30946 0.701064
RightShoulder  -1.66759 -7.50728 35.0977
RightArm  12.6541 -17.4634 37.8144
RightForeArm  20.4732 8.04575 5.62505
RightHand  0.0226272 2.1962 0.161203
LeftUpLeg  -1.04647 11.5693 9.03557
LeftLeg  16.5347 4.85432 1.92221
LeftFoot  -11.6061 0.060352 -4.39412
LeftToes  -3.37426e-010 -1.91496e-010 5.23909e-011
45
root  51.501 39.1554 15.0549 -178.668 68.7465 177.344
RightUpLeg  -10.1587 -11.1931 -4.22651
RightLeg  12.4964 2.02658 2.85239
RightFoot  -8.21315 -0.225293 6.20662
RightToes  -2.9104e-010 0 -3.6325e-017
Spine  6.12741 -1.20424 4.62185
Spine1  3.41416 -1.08089 0.831787
HEad  -2.59994 5.89191 -1.98226
LeftShoulder1  -0.917405 5.82094 -33.4254
LeftArm  -2.76094 15.9176 -37.1964
LeftForeArm  33.1242 -42.8595 -8.16532
LeftHand  -0.0257347 4.81429 -0.204237
RightShoulder  -1.57772 -7.36221 34.3548
RightArm  13.1913 -14.5382 38.4178
RightForeArm  20.7429 8.86198 5.87112
RightHand  0.0265071 1.47827 0.299058
LeftUpLeg  -4.50734 9.74615 6.30139
LeftLeg  21.7898 2.78091 1.57686
LeftFoot  -12.3682 0.0348107 -4.34406
LeftToes  -3.37426e-010 -1.91496e-010 5.23909e-011
